<svg xmlns="http://www.w3.org/2000/svg" xmlns:xlink="http://www.w3.org/1999/xlink" xmlns:lucid="lucid" width="1081.5" height="834.45"><g transform="translate(1781 813.946500867222)" lucid:page-tab-id="0_0"><path d="M-2000-1000h1500V500h-1500z" fill="#fff"/><path d="M-1371.37-724.2h505.86M-1371.34-724.2h-1.03M-865.53-724.2h1.02" stroke="#a9afb8" stroke-width="2" fill="none"/><path d="M-1560-804.95a8 8 0 0 1 8-8h837.7a8 8 0 0 1 8 8v108.74a8 8 0 0 1-8 8H-1552a8 8 0 0 1-8-8z" stroke="#000" stroke-opacity="0" stroke-width="2" fill="#fff" fill-opacity="0"/><use xlink:href="#a" transform="matrix(1,0,0,1,-1556,-808.946500867222) translate(102.87615226337448 69.05592592592593)"/><use xlink:href="#b" transform="matrix(1,0,0,1,-1556,-808.946500867222) translate(316.60804526748973 69.05592592592593)"/><use xlink:href="#c" transform="matrix(1,0,0,1,-1556,-808.946500867222) translate(469.3657613168724 69.05592592592593)"/><use xlink:href="#d" transform="matrix(1,0,0,1,-1556,-808.946500867222) translate(574.9426131687243 69.05592592592593)"/><path d="M-1082.67-286.52l.14 1.82.42 1.76.7 1.67.93 1.54 1.17 1.38 1.38 1.17 1.54.95 1.67.7 1.75.4 1.82.15h64.34v.96h-64.37l-1.93-.16-1.9-.45-1.8-.75-1.68-1.03-1.5-1.28-1.26-1.5-1.02-1.66-.75-1.8-.47-1.9-.15-1.94v-78.1h.95zm-10.52-197.8l1.9.45 1.82.75 1.67 1.03 1.48 1.28 1.27 1.5 1.02 1.66.75 1.8.46 1.9.15 1.94v78.1h-.95v-78.06l-.15-1.82-.42-1.76-.68-1.67-.94-1.54-1.18-1.38-1.37-1.17-1.55-.95-1.67-.7-1.74-.4-1.83-.15h-44.33v-.96h44.37z" stroke="#333" stroke-width=".05" fill="#333"/><path d="M-1146.12-493.5l2.75 1.43 2.16 2.16 1.4 2.74.52 3.16-.5 3.16-1.43 2.75-2.17 2.17-2.75 1.42-3.16.5-3.16-.5-2.74-1.43-2.17-2.16-1.42-2.74-.5-3.16.5-3.16 1.42-2.75 2.17-2.17 2.74-1.42 3.16-.5zm-33.16 19.5l20-10m-20-10l20 10m0 0h-20" fill="#fff"/><path d="M-1145.96-493.95l2.87 1.5 2.28 2.26 1.5 2.9.52 3.3-.53 3.3-1.5 2.9-2.26 2.26-2.87 1.5-3.3.52-3.32-.53-2.87-1.5-2.26-2.26-1.5-2.9-.4-2.6-19.43 9.73-.43-.86 18.2-9.1h-17.98v-.95h18l-18.2-9.1.42-.85 19.42 9.72.42-2.6 1.5-2.9 2.25-2.26 2.88-1.5 3.32-.52zm-6.33.92l-2.6 1.35-2.06 2.06-1.35 2.6-.5 3.02.5 3 1.34 2.62 2.06 2.06 2.6 1.35 3.02.5 3-.5 2.63-1.35 2.06-2.06 1.36-2.6.48-3.02-.48-3-1.35-2.62-2.05-2.06-2.62-1.35-3-.5zM-1006.32-274.98h9.05v-9.52h.95v9.52h9.53v.96h-9.52v9.52h-.95v-9.52h-9.05v9.52h-.95v-20h.95z" stroke="#333" stroke-width=".05" fill="#333"/><use xlink:href="#e" transform="matrix(1,0,0,1,-1098.0169119285883,-393.91666666671745) translate(0 19.555555555555557)"/><path d="M-1460-567a5 5 0 0 1 5-5h270a5 5 0 0 1 5 5v243a5 5 0 0 1-5 5h-270a5 5 0 0 1-5-5z" fill="#fff"/><path d="M-1460-532v-35a5 5 0 0 1 5-5h270a5 5 0 0 1 5 5v35" fill="#ced4db"/><path d="M-1460-567a5 5 0 0 1 5-5h270a5 5 0 0 1 5 5v243a5 5 0 0 1-5 5h-270a5 5 0 0 1-5-5zM-1460-532h280M-1320-532v213" stroke="#282c33" fill="none"/><use xlink:href="#f" transform="matrix(1,0,0,1,-1450,-572.0000000000507) translate(0 23.6)"/><use xlink:href="#g" transform="matrix(1,0,0,1,-1455,-529.5000000000507) translate(0 17.1)"/><use xlink:href="#h" transform="matrix(1,0,0,1,-1455,-497.5000000000507) translate(0 17.1)"/><use xlink:href="#i" transform="matrix(1,0,0,1,-1315,-497.5000000000507) translate(0 17.1)"/><use xlink:href="#j" transform="matrix(1,0,0,1,-1455,-465.5000000000507) translate(0 17.1)"/><use xlink:href="#k" transform="matrix(1,0,0,1,-1315,-465.5000000000507) translate(0 17.1)"/><use xlink:href="#l" transform="matrix(1,0,0,1,-1455,-433.5000000000507) translate(0 17.1)"/><use xlink:href="#m" transform="matrix(1,0,0,1,-1455,-433.5000000000507) translate(69.95 17.1)"/><use xlink:href="#n" transform="matrix(1,0,0,1,-1455,-401.5000000000507) translate(0 17.1)"/><use xlink:href="#o" transform="matrix(1,0,0,1,-1455,-401.5000000000507) translate(53.900000000000006 17.1)"/><use xlink:href="#p" transform="matrix(1,0,0,1,-1455,-369.5000000000507) translate(0 16.799999999999997)"/><use xlink:href="#q" transform="matrix(1,0,0,1,-1455,-369.5000000000507) translate(0 38.4)"/><path d="M-986.3-357.5a5 5 0 0 1 5-5h270a5 5 0 0 1 5 5v94a5 5 0 0 1-5 5h-270a5 5 0 0 1-5-5z" fill="#fff"/><path d="M-986.3-322.5v-35a5 5 0 0 1 5-5h270a5 5 0 0 1 5 5v35" fill="#ced4db"/><path d="M-986.3-357.5a5 5 0 0 1 5-5h270a5 5 0 0 1 5 5v94a5 5 0 0 1-5 5h-270a5 5 0 0 1-5-5zM-986.3-322.5h280M-846.3-322.5v64" stroke="#282c33" fill="none"/><use xlink:href="#r" transform="matrix(1,0,0,1,-976.2931055706867,-362.5000000000507) translate(0 23.6)"/><use xlink:href="#s" transform="matrix(1,0,0,1,-981.2931055706867,-320.0000000000507) translate(0 17.1)"/><use xlink:href="#t" transform="matrix(1,0,0,1,-841.2931055706867,-320.0000000000507) translate(0 17.1)"/><use xlink:href="#g" transform="matrix(1,0,0,1,-981.2931055706867,-288.0000000000507) translate(0 17.1)"/><path d="M-1180-175a5 5 0 0 1 5-5h270a5 5 0 0 1 5 5V15a5 5 0 0 1-5 5h-270a5 5 0 0 1-5-5z" fill="#fff"/><path d="M-1180-140v-35a5 5 0 0 1 5-5h270a5 5 0 0 1 5 5v35" fill="#ced4db"/><path d="M-1180-175a5 5 0 0 1 5-5h270a5 5 0 0 1 5 5V15a5 5 0 0 1-5 5h-270a5 5 0 0 1-5-5zM-1180-140h280M-1041.72-140V20" stroke="#282c33" fill="none"/><use xlink:href="#u" transform="matrix(1,0,0,1,-1170,-180) translate(0 23.6)"/><use xlink:href="#s" transform="matrix(1,0,0,1,-1175,-137.5) translate(0 17.1)"/><use xlink:href="#v" transform="matrix(1,0,0,1,-1036.7201654241385,-137.5) translate(0 17.1)"/><use xlink:href="#w" transform="matrix(1,0,0,1,-1036.7201654241385,-137.5) translate(44 17.1)"/><use xlink:href="#g" transform="matrix(1,0,0,1,-1175,-105.5) translate(0 17.1)"/><use xlink:href="#x" transform="matrix(1,0,0,1,-1175,-73.5) translate(0 17.1)"/><use xlink:href="#m" transform="matrix(1,0,0,1,-1175,-73.5) translate(41.95 17.1)"/><use xlink:href="#y" transform="matrix(1,0,0,1,-1175,-41.5) translate(0 17.1)"/><use xlink:href="#z" transform="matrix(1,0,0,1,-1175,-9.5) translate(0 17.1)"/><use xlink:href="#A" transform="matrix(1,0,0,1,-1175,-9.5) translate(61.95 17.1)"/><use xlink:href="#k" transform="matrix(1,0,0,1,-1036.7201654241385,-9.5) translate(0 17.1)"/><path d="M-1780-736a16 16 0 0 1 16-16h208a16 16 0 0 1 16 16v148a16 16 0 0 1-16 16h-208a16 16 0 0 1-16-16z" stroke="#4c535d" stroke-width="2" fill="#fff"/><path d="M-1704.55-660.38c0 8.93-7.24 16.16-16.17 16.16-8.93 0-16.17-7.23-16.17-16.16s7.25-16.17 16.18-16.17 16.17 7.24 16.17 16.17z" stroke="#000" stroke-opacity=".25" fill="#a9afb8"/><path d="M-1704.55-617.27c0 8.93-7.24 16.17-16.17 16.17-8.93 0-16.17-7.24-16.17-16.17 0-8.93 7.25-16.17 16.18-16.17s16.17 7.24 16.17 16.17z" stroke="#000" stroke-opacity=".25" fill="#cfe4ff"/><use xlink:href="#B" transform="matrix(1,0,0,1,-1736.88622754491,-719.6646706587334) translate(17.049999999999997 14.4)"/><use xlink:href="#C" transform="matrix(1,0,0,1,-1736.88622754491,-719.6646706587334) translate(36.525 38.160000000000004)"/><use xlink:href="#D" transform="matrix(1,0,0,1,-1688.3832335329341,-676.5508982036436) translate(0 19.3)"/><use xlink:href="#E" transform="matrix(1,0,0,1,-1688.3832335329341,-676.5508982036436) translate(45.072222222222216 19.3)"/><use xlink:href="#F" transform="matrix(1,0,0,1,-1688.3832335329341,-633.4371257485536) translate(0 19.3)"/><use xlink:href="#E" transform="matrix(1,0,0,1,-1688.3832335329341,-633.4371257485536) translate(39.355555555555554 19.3)"/><path d="M-1760-389.5a5 5 0 0 1 5-5h270a5 5 0 0 1 5 5v158a5 5 0 0 1-5 5h-270a5 5 0 0 1-5-5z" fill="#fff"/><path d="M-1760-354.5v-35a5 5 0 0 1 5-5h270a5 5 0 0 1 5 5v35" fill="#cfe4ff"/><path d="M-1760-389.5a5 5 0 0 1 5-5h270a5 5 0 0 1 5 5v158a5 5 0 0 1-5 5h-270a5 5 0 0 1-5-5zM-1760-354.5h280M-1621.72-354.5v128" stroke="#282c33" fill="none"/><use xlink:href="#G" transform="matrix(1,0,0,1,-1750,-394.5000000000507) translate(0 23.6)"/><use xlink:href="#h" transform="matrix(1,0,0,1,-1755,-352.0000000000507) translate(0 17.1)"/><use xlink:href="#v" transform="matrix(1,0,0,1,-1616.7201654241385,-352.0000000000507) translate(0 17.1)"/><use xlink:href="#w" transform="matrix(1,0,0,1,-1616.7201654241385,-352.0000000000507) translate(44 17.1)"/><use xlink:href="#H" transform="matrix(1,0,0,1,-1755,-320.0000000000507) translate(0 17.1)"/><use xlink:href="#l" transform="matrix(1,0,0,1,-1755,-288.0000000000507) translate(0 17.1)"/><use xlink:href="#m" transform="matrix(1,0,0,1,-1755,-288.0000000000507) translate(69.95 17.1)"/><use xlink:href="#I" transform="matrix(1,0,0,1,-1755,-256.0000000000507) translate(0 17.1)"/><use xlink:href="#J" transform="matrix(1,0,0,1,-1755,-256.0000000000507) translate(57.95 17.1)"/><use xlink:href="#t" transform="matrix(1,0,0,1,-1616.7201654241385,-256.0000000000507) translate(0 17.1)"/><path d="M-1593.02-483.52h-20.96l-.88.06-.85.2-.8.34-.75.45-.66.56-.57.65-.45.74-.33.8-.2.84-.08.88V-435h-.94v-43.02l.07-1 .24-.98.4-.94.52-.87.66-.78.77-.66.86-.53.94-.4 1-.23.98-.08h21zm93.02 0h-51v-.96h51z" stroke="#3a414a" stroke-width=".05" fill="#3a414a"/><path d="M-1616.84-434.7l2.75 1.4 2.17 2.17 1.42 2.75.5 3.16-.5 3.16-1.43 2.74-2.16 2.17-2.74 1.42-3.16.5-3.16-.5-2.75-1.42-2.17-2.17-1.42-2.74-.5-3.16.5-3.16 1.43-2.75 2.16-2.16 2.74-1.4 3.16-.52zm-13.16 39.48l10-20m10 20l-10-20m0 20v-20" fill="#fff"/><path d="M-1616.7-435.17l2.9 1.5 2.26 2.26 1.5 2.86.52 3.32-.53 3.3-1.5 2.9-2.26 2.25-2.9 1.5-2.6.4 9.72 19.43-.85.43-9.1-18.2v17.98h-.94v-18l-9.1 18.2-.86-.42 9.72-19.42-2.6-.42-2.9-1.5-2.26-2.25-1.5-2.88-.52-3.32.53-3.3 1.5-2.9 2.26-2.26 2.9-1.5 3.3-.52zm-6.3.9l-2.62 1.36-2.06 2.05-1.35 2.62-.5 3 .5 3.02 1.35 2.6 2.06 2.06 2.6 1.35 3.02.5 3-.5 2.62-1.34 2.06-2.06 1.35-2.6.5-3.02-.5-3-1.35-2.63-2.06-2.06-2.6-1.36-3.02-.48z" stroke="#3a414a" stroke-width=".05" fill="#3a414a"/><path d="M-1487.34-493.5l2.75 1.43 2.17 2.16 1.42 2.74.5 3.16-.5 3.16-1.43 2.75-2.16 2.17-2.74 1.42-3.16.5-3.16-.5-2.75-1.43-2.17-2.16-1.42-2.74-.5-3.16.5-3.16 1.43-2.75 2.16-2.17 2.74-1.42 3.16-.5zm16.84-.5v20m-10-10h20" fill="#fff"/><path d="M-1487.2-493.95l2.9 1.5 2.26 2.26 1.5 2.9.44 2.82h9.13V-494h.94v9.52h9.53v.96h-9.53v9.52h-.94v-9.52h-9.13l-.45 2.83-1.5 2.9-2.26 2.26-2.9 1.5-3.3.52-3.3-.53-2.9-1.5-2.26-2.26-1.5-2.9-.52-3.3.53-3.3 1.5-2.9 2.26-2.26 2.9-1.5 3.3-.52zm-6.3.92l-2.62 1.35-2.06 2.06-1.35 2.6-.5 3.02.5 3 1.35 2.62 2.06 2.06 2.6 1.35 3.02.5 3-.5 2.62-1.35 2.06-2.06 1.35-2.6.5-3.02-.5-3-1.35-2.62-2.06-2.06-2.6-1.35-3.02-.5z" stroke="#3a414a" stroke-width=".05" fill="#3a414a"/><use xlink:href="#K" transform="matrix(1,0,0,1,-1593.0218518168517,-498.6666666667173) translate(0 19.555555555555557)"/><path d="M-980-675a5 5 0 0 1 5-5h270a5 5 0 0 1 5 5v126a5 5 0 0 1-5 5h-270a5 5 0 0 1-5-5z" fill="#fff"/><path d="M-980-640v-35a5 5 0 0 1 5-5h270a5 5 0 0 1 5 5v35" fill="#ced4db"/><path d="M-980-675a5 5 0 0 1 5-5h270a5 5 0 0 1 5 5v126a5 5 0 0 1-5 5h-270a5 5 0 0 1-5-5zM-980-640h280M-841.72-640v96" stroke="#282c33" fill="none"/><use xlink:href="#L" transform="matrix(1,0,0,1,-970,-680) translate(0 23.6)"/><use xlink:href="#s" transform="matrix(1,0,0,1,-975,-637.5) translate(0 17.1)"/><use xlink:href="#v" transform="matrix(1,0,0,1,-836.7201654241385,-637.5) translate(0 17.1)"/><use xlink:href="#w" transform="matrix(1,0,0,1,-836.7201654241385,-637.5) translate(44 17.1)"/><use xlink:href="#g" transform="matrix(1,0,0,1,-975,-605.5) translate(0 17.1)"/><use xlink:href="#M" transform="matrix(1,0,0,1,-975,-573.5) translate(0 17.1)"/><path d="M-1319.53-66.02l.07.88.2.85.34.8.45.75.56.66.65.57.74.45.8.33.84.2.88.07h93.48v.95h-93.52l-1-.07-.98-.24-.94-.4-.87-.52-.78-.66-.66-.77-.53-.86-.4-.94-.23-1-.07-.98v-85.83h.94zm0-115.12h-.94V-279h.94z" stroke="#3a414a" stroke-width=".05" fill="#3a414a"/><path d="M-1316.84-298l2.75 1.43 2.17 2.16 1.42 2.74.5 3.16-.5 3.16-1.43 2.75-2.16 2.17-2.74 1.42-3.16.5-3.16-.5-2.75-1.43-2.17-2.16-1.42-2.74-.5-3.16.5-3.16 1.43-2.75 2.16-2.17 2.74-1.42 3.16-.5zm-3.16-20.5v20m10-10h-20" fill="#fff"/><path d="M-1319.53-308.98h9.53v.96h-9.53v9.12l2.84.45 2.9 1.5 2.26 2.26 1.5 2.9.52 3.3-.53 3.3-1.5 2.9-2.26 2.26-2.9 1.5-3.3.52-3.3-.53-2.9-1.5-2.26-2.26-1.5-2.9-.52-3.3.53-3.3 1.5-2.9 2.26-2.26 2.9-1.5 2.83-.44v-9.13h-9.53v-.95h9.53v-9.52h.94zm-3.48 11.45l-2.62 1.35-2.06 2.06-1.35 2.6-.5 3.02.5 3 1.35 2.62 2.06 2.06 2.6 1.35 3.02.5 3-.5 2.62-1.35 2.06-2.06 1.35-2.6.5-3.02-.5-3-1.35-2.62-2.06-2.06-2.6-1.35-3.02-.5z" stroke="#3a414a" stroke-width=".05" fill="#3a414a"/><path d="M-1207.56-69.5l2.74 1.43 2.17 2.16 1.42 2.74.5 3.16-.5 3.16-1.42 2.75-2.17 2.17-2.74 1.42-3.16.5-3.16-.5-2.75-1.43-2.16-2.16-1.4-2.74-.52-3.16.5-3.16 1.43-2.75 2.17-2.17 2.75-1.42 3.16-.5zm26.84 19.5l-20-10m20-10l-20 10m0 0h20" fill="#fff"/><path d="M-1207.4-69.95l2.87 1.5 2.26 2.26 1.5 2.9.4 2.6 19.43-9.72.43.84-18.2 9.1h17.98v.95h-18l18.2 9.1-.42.85-19.42-9.7-.42 2.6-1.5 2.87-2.25 2.26-2.88 1.5-3.32.52-3.32-.53-2.87-1.5-2.28-2.26-1.5-2.9-.52-3.3.53-3.3 1.5-2.9 2.26-2.26 2.87-1.5 3.3-.52zm-6.33.92l-2.62 1.35-2.06 2.06-1.36 2.6-.48 3.02.48 3 1.35 2.62 2.05 2.06 2.62 1.35 3 .5 3.02-.5 2.6-1.35 2.06-2.06 1.35-2.6.5-3.02-.5-3-1.34-2.62-2.06-2.06-2.6-1.35-3.02-.5z" stroke="#3a414a" stroke-width=".05" fill="#3a414a"/><g><use xlink:href="#N" transform="matrix(1,0,0,1,-1351.1666666666667,-181.14251876433028) translate(0 19.555555555555557)"/></g><path d="M-925.36-209.53H-1030v-.94h104.64zm79.54-6.45l-.08 1-.23.98-.4.94-.52.87-.66.78-.8.66-.85.53-.94.4-.98.23-1 .07h-52.7v-.94h52.67l.87-.07.84-.2.82-.34.73-.45.66-.56.58-.65.45-.74.33-.8.2-.84.07-.88V-238h.95z" stroke="#3a414a" stroke-width=".05" fill="#3a414a"/><path d="M-845.82-248.47h9.53v.94h-9.52v9.06h9.53v.94h-20v-.94h9.53v-9.06h-9.52v-.94h9.53V-258h.95z" stroke="#3a414a" stroke-width=".05" fill="#3a414a"/><path d="M-1027.2-218.4l2.74 1.42 2.16 2.16 1.42 2.75.5 3.16-.5 3.15-1.42 2.74-2.16 2.16-2.75 1.42-3.17.5-3.16-.5-2.75-1.42-2.16-2.17-1.42-2.75-.5-3.16.5-3.17 1.42-2.75 2.16-2.16 2.75-1.42 3.16-.5zm-12.8 37.9l6.42-18.94m6.26 12.68l-18.94-6.42" fill="#fff"/><path d="M-1027.06-218.86l2.88 1.5 2.27 2.26 1.48 2.88.53 3.3-.52 3.32-1.5 2.88-2.26 2.27-2.88 1.48-3.3.54-2.9-.47-2.93 8.63 9.03 3.06-.3.9-9.02-3.07-3.05 9.02-.9-.3 3.06-9.02-9-3.06.3-.9 9 3.06 2.94-8.64-2.4-1.25-2.27-2.27-1.5-2.88-.52-3.3.53-3.32 1.5-2.88 2.26-2.27 2.88-1.5 3.3-.52zm-6.32.92l-2.6 1.35-2.07 2.07-1.35 2.6-.5 3.02.5 3 1.35 2.6 2.06 2.07 2.62 1.35 3 .5 3.02-.5 2.6-1.35 2.07-2.06 1.36-2.6.5-3-.5-3.02-1.35-2.6-2.05-2.07-2.6-1.34-3.02-.5z" stroke="#3a414a" stroke-width=".05" fill="#3a414a"/><g><use xlink:href="#O" transform="matrix(1,0,0,1,-925.3608242917256,-224.66666666666666) translate(0 19.555555555555557)"/></g><path d="M-839.52-383h-.96v-65h.96zm0-94.33h-.96V-504h.96z" stroke="#3a414a" stroke-width=".05" fill="#3a414a"/><path d="M-836.84-523l2.75 1.43 2.17 2.16 1.42 2.74.5 3.16-.5 3.16-1.43 2.75-2.16 2.17-2.74 1.42-3.16.5-3.16-.5-2.75-1.43-2.17-2.16-1.42-2.74-.5-3.16.5-3.16 1.43-2.75 2.16-2.17 2.74-1.42 3.16-.5zm-3.16-20.5v20m10-10h-20" fill="#fff"/><path d="M-839.52-533.98h9.52v.96h-9.52v9.12l2.83.45 2.9 1.5 2.26 2.26 1.5 2.9.52 3.3-.53 3.3-1.5 2.9-2.26 2.26-2.9 1.5-3.3.52-3.3-.53-2.9-1.5-2.26-2.26-1.5-2.9-.52-3.3.53-3.3 1.5-2.9 2.26-2.26 2.9-1.5 2.82-.44v-9.13H-850v-.95h9.52v-9.52h.96zm-3.5 11.45l-2.6 1.35-2.06 2.06-1.35 2.6-.5 3.02.5 3 1.35 2.62 2.06 2.06 2.6 1.35 3.02.5 3-.5 2.62-1.35 2.06-2.06 1.35-2.6.5-3.02-.5-3-1.35-2.62-2.06-2.06-2.6-1.35-3.02-.5zM-830-382.52h-9.52v9.04h9.52v.96h-9.52v9.52h-.96v-9.52H-850v-.96h9.52v-9.04H-850v-.96h20z" stroke="#3a414a" stroke-width=".05" fill="#3a414a"/><g><use xlink:href="#O" transform="matrix(1,0,0,1,-850.1851851851852,-477.3333333333333) translate(0 19.555555555555557)"/></g><defs><path fill="#a9afb8" d="M240 0l2-218c-23 76-54 145-80 218h-23L58-218 59 0H30v-248h44l77 211c21-75 51-140 76-211h43V0h-30" id="P"/><path fill="#a9afb8" d="M100-194c62-1 85 37 85 99 1 63-27 99-86 99S16-35 15-95c0-66 28-99 85-99zM99-20c44 1 53-31 53-75 0-43-8-75-51-75s-53 32-53 75 10 74 51 75" id="Q"/><path fill="#a9afb8" d="M117-194c89-4 53 116 60 194h-32v-121c0-31-8-49-39-48C34-167 62-67 57 0H25l-1-190h30c1 10-1 24 2 32 11-22 29-35 61-36" id="R"/><path fill="#a9afb8" d="M115-194c55 1 70 41 70 98S169 2 115 4C84 4 66-9 55-30l1 105H24l-1-265h31l2 30c10-21 28-34 59-34zm-8 174c40 0 45-34 45-75s-6-73-45-74c-42 0-51 32-51 76 0 43 10 73 51 73" id="S"/><path fill="#a9afb8" d="M24 0v-261h32V0H24" id="T"/><path fill="#a9afb8" d="M179-190L93 31C79 59 56 82 12 73V49c39 6 53-20 64-50L1-190h34L92-34l54-156h33" id="U"/><g id="a"><use transform="matrix(0.12890946502057615,0,0,0.12890946502057615,0,0)" xlink:href="#P"/><use transform="matrix(0.12890946502057615,0,0,0.12890946502057615,38.54393004115227,0)" xlink:href="#Q"/><use transform="matrix(0.12890946502057615,0,0,0.12890946502057615,64.3258230452675,0)" xlink:href="#R"/><use transform="matrix(0.12890946502057615,0,0,0.12890946502057615,90.10771604938273,0)" xlink:href="#Q"/><use transform="matrix(0.12890946502057615,0,0,0.12890946502057615,115.88960905349796,0)" xlink:href="#S"/><use transform="matrix(0.12890946502057615,0,0,0.12890946502057615,141.6715020576132,0)" xlink:href="#Q"/><use transform="matrix(0.12890946502057615,0,0,0.12890946502057615,167.45339506172843,0)" xlink:href="#T"/><use transform="matrix(0.12890946502057615,0,0,0.12890946502057615,177.63724279835395,0)" xlink:href="#U"/></g><path fill="#a9afb8" d="M212-179c-10-28-35-45-73-45-59 0-87 40-87 99 0 60 29 101 89 101 43 0 62-24 78-52l27 14C228-24 195 4 139 4 59 4 22-46 18-125c-6-104 99-153 187-111 19 9 31 26 39 46" id="V"/><path fill="#a9afb8" d="M114-163C36-179 61-72 57 0H25l-1-190h30c1 12-1 29 2 39 6-27 23-49 58-41v29" id="W"/><path fill="#a9afb8" d="M206 0h-36l-40-164L89 0H53L-1-190h32L70-26l43-164h34l41 164 42-164h31" id="X"/><path fill="#a9afb8" d="M47-170H22l-4-78h33" id="Y"/><path fill="#a9afb8" d="M135-143c-3-34-86-38-87 0 15 53 115 12 119 90S17 21 10-45l28-5c4 36 97 45 98 0-10-56-113-15-118-90-4-57 82-63 122-42 12 7 21 19 24 35" id="Z"/><g id="b"><use transform="matrix(0.12890946502057615,0,0,0.12890946502057615,0,0)" xlink:href="#V"/><use transform="matrix(0.12890946502057615,0,0,0.12890946502057615,33.387551440329226,0)" xlink:href="#W"/><use transform="matrix(0.12890946502057615,0,0,0.12890946502057615,48.72777777777779,0)" xlink:href="#Q"/><use transform="matrix(0.12890946502057615,0,0,0.12890946502057615,74.50967078189302,0)" xlink:href="#X"/><use transform="matrix(0.12890946502057615,0,0,0.12890946502057615,107.89722222222224,0)" xlink:href="#Y"/><use transform="matrix(0.12890946502057615,0,0,0.12890946502057615,116.66306584362141,0)" xlink:href="#Z"/></g><path fill="#a9afb8" d="M63-220v92h138v28H63V0H30v-248h175v28H63" id="aa"/><path fill="#a9afb8" d="M59-47c-2 24 18 29 38 22v24C64 9 27 4 27-40v-127H5v-23h24l9-43h21v43h35v23H59v120" id="ab"/><g id="c"><use transform="matrix(0.12890946502057615,0,0,0.12890946502057615,0,0)" xlink:href="#aa"/><use transform="matrix(0.12890946502057615,0,0,0.12890946502057615,28.23117283950618,0)" xlink:href="#Q"/><use transform="matrix(0.12890946502057615,0,0,0.12890946502057615,54.013065843621405,0)" xlink:href="#Q"/><use transform="matrix(0.12890946502057615,0,0,0.12890946502057615,79.79495884773664,0)" xlink:href="#ab"/></g><path fill="#a9afb8" d="M30-248c118-7 216 8 213 122C240-48 200 0 122 0H30v-248zM63-27c89 8 146-16 146-99s-60-101-146-95v194" id="ac"/><path fill="#a9afb8" d="M24-231v-30h32v30H24zM24 0v-190h32V0H24" id="ad"/><path fill="#a9afb8" d="M141-36C126-15 110 5 73 4 37 3 15-17 15-53c-1-64 63-63 125-63 3-35-9-54-41-54-24 1-41 7-42 31l-33-3c5-37 33-52 76-52 45 0 72 20 72 64v82c-1 20 7 32 28 27v20c-31 9-61-2-59-35zM48-53c0 20 12 33 32 33 41-3 63-29 60-74-43 2-92-5-92 41" id="ae"/><path fill="#a9afb8" d="M177-190C167-65 218 103 67 71c-23-6-38-20-44-43l32-5c15 47 100 32 89-28v-30C133-14 115 1 83 1 29 1 15-40 15-95c0-56 16-97 71-98 29-1 48 16 59 35 1-10 0-23 2-32h30zM94-22c36 0 50-32 50-73 0-42-14-75-50-75-39 0-46 34-46 75s6 73 46 73" id="af"/><path fill="#a9afb8" d="M210-169c-67 3-38 105-44 169h-31v-121c0-29-5-50-35-48C34-165 62-65 56 0H25l-1-190h30c1 10-1 24 2 32 10-44 99-50 107 0 11-21 27-35 58-36 85-2 47 119 55 194h-31v-121c0-29-5-49-35-48" id="ag"/><g id="d"><use transform="matrix(0.12890946502057615,0,0,0.12890946502057615,0,0)" xlink:href="#ac"/><use transform="matrix(0.12890946502057615,0,0,0.12890946502057615,33.387551440329226,0)" xlink:href="#ad"/><use transform="matrix(0.12890946502057615,0,0,0.12890946502057615,43.57139917695474,0)" xlink:href="#ae"/><use transform="matrix(0.12890946502057615,0,0,0.12890946502057615,69.35329218106997,0)" xlink:href="#af"/><use transform="matrix(0.12890946502057615,0,0,0.12890946502057615,95.13518518518521,0)" xlink:href="#W"/><use transform="matrix(0.12890946502057615,0,0,0.12890946502057615,110.47541152263378,0)" xlink:href="#ae"/><use transform="matrix(0.12890946502057615,0,0,0.12890946502057615,136.257304526749,0)" xlink:href="#ag"/></g><path fill="#333" d="M110-194c64 0 96 36 96 99 0 64-35 99-97 99-61 0-95-36-95-99 0-62 34-99 96-99zm-1 164c35 0 45-28 45-65 0-40-10-65-43-65-34 0-45 26-45 65 0 36 10 65 43 65" id="ah"/><path fill="#333" d="M135-194c87-1 58 113 63 194h-50c-7-57 23-157-34-157-59 0-34 97-39 157H25l-1-190h47c2 12-1 28 3 38 12-26 28-41 61-42" id="ai"/><g id="e"><use transform="matrix(0.06790123456790123,0,0,0.06790123456790123,0,0)" xlink:href="#ah"/><use transform="matrix(0.06790123456790123,0,0,0.06790123456790123,14.87037037037037,0)" xlink:href="#ai"/></g><path fill="#333" d="M238-179c0 84-86 86-175 82L45 0H11l48-248c82 0 179-12 179 69zm-34 1c0-53-64-42-116-43l-19 98c63 0 135 9 135-55" id="aj"/><path fill="#333" d="M6 0l50-261h32L37 0H6" id="ak"/><path fill="#333" d="M165-48c-4 18 1 34 23 27l-3 20c-29 8-62 0-52-35h-2C116-14 99 4 63 4 30 4 8-16 8-49c0-68 71-67 138-67 10-26 0-56-31-54-26 1-42 9-47 31l-32-5c8-67 160-71 144 15-5 28-9 54-15 81zM42-50c3 52 80 24 89-6 7-12 7-24 11-38-47 1-103-4-100 44" id="al"/><path fill="#333" d="M198-190L69 30C53 58 25 83-20 72c4-11-1-27 19-22 33-1 43-29 59-52L20-190h32L79-34l84-156h35" id="am"/><path fill="#333" d="M111-194c62-3 86 47 72 106H45c-7 38 6 69 45 68 27-1 43-14 53-32l24 11C152-15 129 4 87 4 38 3 12-23 12-71c0-70 32-119 99-123zm44 81c14-66-71-72-95-28-4 8-8 17-11 28h106" id="an"/><path fill="#333" d="M66-151c12-25 30-51 66-40l-6 26C45-176 58-65 38 0H6l36-190h30" id="ao"/><g id="f"><use transform="matrix(0.05,0,0,0.05,0,0)" xlink:href="#aj"/><use transform="matrix(0.05,0,0,0.05,12,0)" xlink:href="#ak"/><use transform="matrix(0.05,0,0,0.05,15.949999999999998,0)" xlink:href="#al"/><use transform="matrix(0.05,0,0,0.05,25.950000000000003,0)" xlink:href="#am"/><use transform="matrix(0.05,0,0,0.05,34.95,0)" xlink:href="#an"/><use transform="matrix(0.05,0,0,0.05,44.95,0)" xlink:href="#ao"/></g><path fill="#333" d="M173 0L80-213 41 0H11l48-248h37l94 214 40-214h30L212 0h-39" id="ap"/><path fill="#333" d="M248-111c6-24 9-61-24-58-72 9-57 108-77 169h-31l26-142c3-37-50-30-64-10C52-115 50-51 37 0H6l36-190h30c-1 10-6 24-4 32 13-43 101-52 105 5 13-22 29-41 61-41 90 0 28 129 23 194h-31" id="aq"/><g id="g"><use transform="matrix(0.05,0,0,0.05,0,0)" xlink:href="#ap"/><use transform="matrix(0.05,0,0,0.05,12.950000000000001,0)" xlink:href="#al"/><use transform="matrix(0.05,0,0,0.05,22.950000000000003,0)" xlink:href="#aq"/><use transform="matrix(0.05,0,0,0.05,37.900000000000006,0)" xlink:href="#an"/></g><path fill="#333" d="M151-220L108 0H75l42-220H32l6-28h203l-5 28h-85" id="ar"/><path fill="#333" d="M30-147c31-64 166-65 159 27C183-49 158 1 86 4 9 8 1-88 30-147zM88-20c53 0 68-48 68-100 0-31-11-51-44-50-52 1-68 46-68 97 0 32 13 53 44 53" id="as"/><path fill="#333" d="M127 0L80-88 50-66 37 0H6l51-261h31L57-100l99-90h39l-93 82L161 0h-34" id="at"/><path fill="#333" d="M67-158c22-48 132-52 116 29L158 0h-32l25-140c3-38-53-32-70-12C52-117 51-52 38 0H6l36-190h30" id="au"/><g id="h"><use transform="matrix(0.05,0,0,0.05,0,0)" xlink:href="#ar"/><use transform="matrix(0.05,0,0,0.05,9.3,0)" xlink:href="#as"/><use transform="matrix(0.05,0,0,0.05,19.3,0)" xlink:href="#at"/><use transform="matrix(0.05,0,0,0.05,28.3,0)" xlink:href="#an"/><use transform="matrix(0.05,0,0,0.05,38.3,0)" xlink:href="#au"/></g><path d="M30-248c87 1 191-15 191 75 0 78-77 80-158 76V0H30v-248zm33 125c57 0 124 11 124-50 0-59-68-47-124-48v98" id="av"/><path d="M194 0L95-120 63-95V0H30v-248h33v124l119-124h40L117-140 236 0h-42" id="aw"/><g id="i"><use transform="matrix(0.05,0,0,0.05,0,0)" xlink:href="#av"/><use transform="matrix(0.05,0,0,0.05,12,0)" xlink:href="#aw"/></g><path fill="#333" d="M11 0l48-248h34L50-27h125l-5 27H11" id="ax"/><path fill="#333" d="M44-68c0 29 11 47 38 47 30 0 42-19 51-41l28 9C148-21 126 4 82 4 31 4 10-29 12-85c3-77 74-140 146-93 12 8 15 23 18 40l-31 5c-1-22-13-36-36-36-52 0-65 49-65 101" id="ay"/><path fill="#333" d="M51-54c-9 22 5 41 31 30L79-1C43 14 10-4 19-52l22-115H19l5-23h22l19-43h21l-9 43h35l-4 23H73" id="az"/><path fill="#333" d="M50-231l6-30h32l-6 30H50zM6 0l37-190h31L37 0H6" id="aA"/><path fill="#333" d="M14 0l48-248h34L48 0H14" id="aB"/><path fill="#333" d="M248-139C247-14 144 9 11 0l48-248c105-6 190 8 189 109zm-34 0c1-70-52-87-126-82L50-27c98 7 163-21 164-112" id="aC"/><g id="j"><use transform="matrix(0.05,0,0,0.05,0,0)" xlink:href="#ax"/><use transform="matrix(0.05,0,0,0.05,10,0)" xlink:href="#as"/><use transform="matrix(0.05,0,0,0.05,20,0)" xlink:href="#ay"/><use transform="matrix(0.05,0,0,0.05,29,0)" xlink:href="#al"/><use transform="matrix(0.05,0,0,0.05,39,0)" xlink:href="#az"/><use transform="matrix(0.05,0,0,0.05,44,0)" xlink:href="#aA"/><use transform="matrix(0.05,0,0,0.05,47.95,0)" xlink:href="#as"/><use transform="matrix(0.05,0,0,0.05,57.95,0)" xlink:href="#au"/><use transform="matrix(0.05,0,0,0.05,67.95,0)" xlink:href="#aB"/><use transform="matrix(0.05,0,0,0.05,72.95,0)" xlink:href="#aC"/></g><path d="M63-220v92h138v28H63V0H30v-248h175v28H63" id="aD"/><g id="k"><use transform="matrix(0.05,0,0,0.05,0,0)" xlink:href="#aD"/><use transform="matrix(0.05,0,0,0.05,10.950000000000001,0)" xlink:href="#aw"/></g><path fill="#333" d="M219-77C219 17 104-2 11 0l48-248c73 2 169-15 169 57 0 38-24 54-60 60 29 5 51 21 51 54zm-26-111c0-44-62-31-105-33l-16 79c55 0 121 9 121-46zm-7 110c-1-49-69-36-119-38L50-27c61-1 137 12 136-51" id="aE"/><g id="l"><use transform="matrix(0.05,0,0,0.05,0,0)" xlink:href="#aE"/><use transform="matrix(0.05,0,0,0.05,12,0)" xlink:href="#al"/><use transform="matrix(0.05,0,0,0.05,22,0)" xlink:href="#ak"/><use transform="matrix(0.05,0,0,0.05,25.950000000000003,0)" xlink:href="#al"/><use transform="matrix(0.05,0,0,0.05,35.95,0)" xlink:href="#au"/><use transform="matrix(0.05,0,0,0.05,45.95,0)" xlink:href="#ay"/><use transform="matrix(0.05,0,0,0.05,54.95,0)" xlink:href="#an"/></g><path fill="#333" d="M17-49c1-102 45-165 103-212h30C92-210 49-145 49-46 49 4 63 43 85 75H54C30 43 18 2 17-49" id="aF"/><path fill="#333" d="M36-27c50-4 120 15 126-32l27 5C179 19 77-3-2 0l5-27c30-13 41-45 47-83H17l4-23h33c9-66 26-135 112-116 20 5 36 17 41 38l-29 9c-4-25-50-30-67-13-17 16-18 55-25 82h72l-5 23H81c-4 38-16 70-45 83" id="aG"/><path fill="#333" d="M98-137C97-35 54 29-4 75h-31C23 23 67-41 67-140c0-50-15-89-37-121h31c24 32 36 73 37 124" id="aH"/><g id="m"><use transform="matrix(0.05,0,0,0.05,0,0)" xlink:href="#aF"/><use transform="matrix(0.05,0,0,0.05,5.95,0)" xlink:href="#aG"/><use transform="matrix(0.05,0,0,0.05,15.949999999999998,0)" xlink:href="#aH"/></g><path d="M232-93c-1 65-40 97-104 97C67 4 28-28 28-90v-158h33c8 89-33 224 67 224 102 0 64-133 71-224h33v155" id="aI"/><path d="M117-194c89-4 53 116 60 194h-32v-121c0-31-8-49-39-48C34-167 62-67 57 0H25l-1-190h30c1 10-1 24 2 32 11-22 29-35 61-36" id="aJ"/><path d="M85-194c31 0 48 13 60 33l-1-100h32l1 261h-30c-2-10 0-23-3-31C134-8 116 4 85 4 32 4 16-35 15-94c0-66 23-100 70-100zm9 24c-40 0-46 34-46 75 0 40 6 74 45 74 42 0 51-32 51-76 0-42-9-74-50-73" id="aK"/><path d="M100-194c63 0 86 42 84 106H49c0 40 14 67 53 68 26 1 43-12 49-29l28 8c-11 28-37 45-77 45C44 4 14-33 15-96c1-61 26-98 85-98zm52 81c6-60-76-77-97-28-3 7-6 17-6 28h103" id="aL"/><path d="M114-163C36-179 61-72 57 0H25l-1-190h30c1 12-1 29 2 39 6-27 23-49 58-41v29" id="aM"/><g id="n"><use transform="matrix(0.05,0,0,0.05,0,0)" xlink:href="#aI"/><use transform="matrix(0.05,0,0,0.05,12.950000000000001,0)" xlink:href="#aJ"/><use transform="matrix(0.05,0,0,0.05,22.950000000000003,0)" xlink:href="#aK"/><use transform="matrix(0.05,0,0,0.05,32.95,0)" xlink:href="#aL"/><use transform="matrix(0.05,0,0,0.05,42.95,0)" xlink:href="#aM"/></g><path d="M96-169c-40 0-48 33-48 73s9 75 48 75c24 0 41-14 43-38l32 2c-6 37-31 61-74 61-59 0-76-41-82-99-10-93 101-131 147-64 4 7 5 14 7 22l-32 3c-4-21-16-35-41-35" id="aN"/><path d="M84 4C-5 8 30-112 23-190h32v120c0 31 7 50 39 49 72-2 45-101 50-169h31l1 190h-30c-1-10 1-25-2-33-11 22-28 36-60 37" id="aO"/><path d="M135-143c-3-34-86-38-87 0 15 53 115 12 119 90S17 21 10-45l28-5c4 36 97 45 98 0-10-56-113-15-118-90-4-57 82-63 122-42 12 7 21 19 24 35" id="aP"/><path d="M59-47c-2 24 18 29 38 22v24C64 9 27 4 27-40v-127H5v-23h24l9-43h21v43h35v23H59v120" id="aQ"/><path d="M100-194c62-1 85 37 85 99 1 63-27 99-86 99S16-35 15-95c0-66 28-99 85-99zM99-20c44 1 53-31 53-75 0-43-8-75-51-75s-53 32-53 75 10 74 51 75" id="aR"/><path d="M179-190L93 31C79 59 56 82 12 73V49c39 6 53-20 64-50L1-190h34L92-34l54-156h33" id="aS"/><g id="o"><use transform="matrix(0.05,0,0,0.05,0,0)" xlink:href="#aN"/><use transform="matrix(0.05,0,0,0.05,9,0)" xlink:href="#aO"/><use transform="matrix(0.05,0,0,0.05,19,0)" xlink:href="#aP"/><use transform="matrix(0.05,0,0,0.05,28,0)" xlink:href="#aQ"/><use transform="matrix(0.05,0,0,0.05,33,0)" xlink:href="#aR"/><use transform="matrix(0.05,0,0,0.05,43,0)" xlink:href="#aK"/><use transform="matrix(0.05,0,0,0.05,53,0)" xlink:href="#aS"/></g><path d="M30 0v-248h33v221h125V0H30" id="aT"/><path d="M141-36C126-15 110 5 73 4 37 3 15-17 15-53c-1-64 63-63 125-63 3-35-9-54-41-54-24 1-41 7-42 31l-33-3c5-37 33-52 76-52 45 0 72 20 72 64v82c-1 20 7 32 28 27v20c-31 9-61-2-59-35zM48-53c0 20 12 33 32 33 41-3 63-29 60-74-43 2-92-5-92 41" id="aU"/><path d="M24-231v-30h32v30H24zM24 0v-190h32V0H24" id="aV"/><g id="p"><use transform="matrix(0.05,0,0,0.05,0,0)" xlink:href="#aT"/><use transform="matrix(0.05,0,0,0.05,10,0)" xlink:href="#aR"/><use transform="matrix(0.05,0,0,0.05,20,0)" xlink:href="#aN"/><use transform="matrix(0.05,0,0,0.05,29,0)" xlink:href="#aU"/><use transform="matrix(0.05,0,0,0.05,39,0)" xlink:href="#aQ"/><use transform="matrix(0.05,0,0,0.05,44,0)" xlink:href="#aV"/><use transform="matrix(0.05,0,0,0.05,47.95,0)" xlink:href="#aR"/><use transform="matrix(0.05,0,0,0.05,57.95,0)" xlink:href="#aJ"/></g><path d="M30-248c118-7 216 8 213 122C240-48 200 0 122 0H30v-248zM63-27c89 8 146-16 146-99s-60-101-146-95v194" id="aW"/><path d="M115-194c55 1 70 41 70 98S169 2 115 4C84 4 66-9 55-30l1 105H24l-1-265h31l2 30c10-21 28-34 59-34zm-8 174c40 0 45-34 45-75s-6-73-45-74c-42 0-51 32-51 76 0 43 10 73 51 73" id="aX"/><g id="q"><use transform="matrix(0.05,0,0,0.05,0,0)" xlink:href="#aW"/><use transform="matrix(0.05,0,0,0.05,12.950000000000001,0)" xlink:href="#aL"/><use transform="matrix(0.05,0,0,0.05,22.950000000000003,0)" xlink:href="#aP"/><use transform="matrix(0.05,0,0,0.05,31.950000000000003,0)" xlink:href="#aN"/><use transform="matrix(0.05,0,0,0.05,40.95,0)" xlink:href="#aM"/><use transform="matrix(0.05,0,0,0.05,46.900000000000006,0)" xlink:href="#aV"/><use transform="matrix(0.05,0,0,0.05,50.85000000000001,0)" xlink:href="#aX"/><use transform="matrix(0.05,0,0,0.05,60.85,0)" xlink:href="#aQ"/><use transform="matrix(0.05,0,0,0.05,65.85000000000001,0)" xlink:href="#aV"/><use transform="matrix(0.05,0,0,0.05,69.80000000000001,0)" xlink:href="#aR"/><use transform="matrix(0.05,0,0,0.05,79.80000000000001,0)" xlink:href="#aJ"/></g><g id="r"><use transform="matrix(0.05,0,0,0.05,0,0)" xlink:href="#ax"/><use transform="matrix(0.05,0,0,0.05,10,0)" xlink:href="#as"/><use transform="matrix(0.05,0,0,0.05,20,0)" xlink:href="#ay"/><use transform="matrix(0.05,0,0,0.05,29,0)" xlink:href="#al"/><use transform="matrix(0.05,0,0,0.05,39,0)" xlink:href="#az"/><use transform="matrix(0.05,0,0,0.05,44,0)" xlink:href="#aA"/><use transform="matrix(0.05,0,0,0.05,47.95,0)" xlink:href="#as"/><use transform="matrix(0.05,0,0,0.05,57.95,0)" xlink:href="#au"/></g><g id="s"><use transform="matrix(0.05,0,0,0.05,0,0)" xlink:href="#aB"/><use transform="matrix(0.05,0,0,0.05,5,0)" xlink:href="#aC"/></g><g id="t"><use transform="matrix(0.05,0,0,0.05,0,0)" xlink:href="#av"/><use transform="matrix(0.05,0,0,0.05,12,0)" xlink:href="#aw"/></g><path fill="#333" d="M67-162c32-53 139-36 121 50C175-51 163 2 97 4 68 4 52-11 42-31 38 6 28 39 22 75H-9l50-265h29c-1 10 0 20-3 28zm89 36c0-26-10-43-35-43-54 0-67 50-69 103-1 29 14 45 42 46 53 0 62-58 62-106" id="aY"/><path fill="#333" d="M55-144c13 50 104 24 104 88C159 21 15 23 1-39l26-10c6 40 102 42 102-4-13-50-104-23-104-87 0-71 143-71 148-8l-29 4c-5-35-85-37-89 0" id="aZ"/><g id="u"><use transform="matrix(0.05,0,0,0.05,0,0)" xlink:href="#aj"/><use transform="matrix(0.05,0,0,0.05,12,0)" xlink:href="#ao"/><use transform="matrix(0.05,0,0,0.05,17.95,0)" xlink:href="#as"/><use transform="matrix(0.05,0,0,0.05,27.950000000000003,0)" xlink:href="#aY"/><use transform="matrix(0.05,0,0,0.05,37.95,0)" xlink:href="#an"/><use transform="matrix(0.05,0,0,0.05,47.95,0)" xlink:href="#ao"/><use transform="matrix(0.05,0,0,0.05,53.900000000000006,0)" xlink:href="#az"/><use transform="matrix(0.05,0,0,0.05,58.900000000000006,0)" xlink:href="#aA"/><use transform="matrix(0.05,0,0,0.05,62.85,0)" xlink:href="#an"/><use transform="matrix(0.05,0,0,0.05,72.85000000000001,0)" xlink:href="#aZ"/></g><g id="v"><use transform="matrix(0.05,0,0,0.05,0,0)" xlink:href="#av"/><use transform="matrix(0.05,0,0,0.05,12,0)" xlink:href="#aw"/></g><g id="w"><use transform="matrix(0.05,0,0,0.05,0,0)" xlink:href="#aD"/><use transform="matrix(0.05,0,0,0.05,10.950000000000001,0)" xlink:href="#aw"/></g><path fill="#333" d="M125-24c46 0 70-25 89-51l25 16C214-24 183 4 123 4 8 4-5-146 60-208c32-50 158-61 191-5 5 7 9 14 11 22l-32 10c-9-28-33-43-69-43-74 0-108 51-108 125 0 46 24 75 72 75" id="ba"/><g id="x"><use transform="matrix(0.05,0,0,0.05,0,0)" xlink:href="#ba"/><use transform="matrix(0.05,0,0,0.05,12.950000000000001,0)" xlink:href="#as"/><use transform="matrix(0.05,0,0,0.05,22.950000000000003,0)" xlink:href="#aZ"/><use transform="matrix(0.05,0,0,0.05,31.950000000000003,0)" xlink:href="#az"/></g><path fill="#333" d="M67 3c-93-2-31-127-26-193h32L48-50c-3 39 53 32 70 12 30-34 30-101 43-152h32L157 0h-30c1-10 6-24 4-33-14 20-29 37-64 36" id="bb"/><g id="y"><use transform="matrix(0.05,0,0,0.05,0,0)" xlink:href="#ba"/><use transform="matrix(0.05,0,0,0.05,12.950000000000001,0)" xlink:href="#as"/><use transform="matrix(0.05,0,0,0.05,22.950000000000003,0)" xlink:href="#ak"/><use transform="matrix(0.05,0,0,0.05,26.900000000000002,0)" xlink:href="#as"/><use transform="matrix(0.05,0,0,0.05,36.900000000000006,0)" xlink:href="#bb"/><use transform="matrix(0.05,0,0,0.05,46.900000000000006,0)" xlink:href="#ao"/></g><path d="M140-251c81 0 123 46 123 126C263-46 219 4 140 4 59 4 17-45 17-125s42-126 123-126zm0 227c63 0 89-41 89-101s-29-99-89-99c-61 0-89 39-89 99S79-25 140-24" id="bc"/><path d="M206 0h-36l-40-164L89 0H53L-1-190h32L70-26l43-164h34l41 164 42-164h31" id="bd"/><g id="z"><use transform="matrix(0.05,0,0,0.05,0,0)" xlink:href="#bc"/><use transform="matrix(0.05,0,0,0.05,14,0)" xlink:href="#bd"/><use transform="matrix(0.05,0,0,0.05,26.950000000000003,0)" xlink:href="#aJ"/><use transform="matrix(0.05,0,0,0.05,36.95,0)" xlink:href="#aL"/><use transform="matrix(0.05,0,0,0.05,46.95,0)" xlink:href="#aK"/></g><path d="M160-131c35 5 61 23 61 61C221 17 115-2 30 0v-248c76 3 177-17 177 60 0 33-19 50-47 57zm-97-11c50-1 110 9 110-42 0-47-63-36-110-37v79zm0 115c55-2 124 14 124-45 0-56-70-42-124-44v89" id="be"/><g id="A"><use transform="matrix(0.05,0,0,0.05,0,0)" xlink:href="#be"/><use transform="matrix(0.05,0,0,0.05,12,0)" xlink:href="#aS"/></g><path d="M24-248c120-7 223 5 221 122C244-46 201 0 124 0H24v-248zM76-40c74 7 117-18 117-86 0-67-45-88-117-82v168" id="bf"/><path d="M25-224v-37h50v37H25zM25 0v-190h50V0H25" id="bg"/><path d="M133-34C117-15 103 5 69 4 32 3 11-16 11-54c-1-60 55-63 116-61 1-26-3-47-28-47-18 1-26 9-28 27l-52-2c7-38 36-58 82-57s74 22 75 68l1 82c-1 14 12 18 25 15v27c-30 8-71 5-69-32zm-48 3c29 0 43-24 42-57-32 0-66-3-65 30 0 17 8 27 23 27" id="bh"/><path d="M195-6C206 82 75 100 31 46c-4-6-6-13-8-21l49-6c3 16 16 24 34 25 40 0 42-37 40-79-11 22-30 35-61 35-53 0-70-43-70-97 0-56 18-96 73-97 30 0 46 14 59 34l2-30h47zm-90-29c32 0 41-27 41-63 0-35-9-62-40-62-32 0-39 29-40 63 0 36 9 62 39 62" id="bi"/><path d="M135-150c-39-12-60 13-60 57V0H25l-1-190h47c2 13-1 29 3 40 6-28 27-53 61-41v41" id="bj"/><path d="M220-157c-53 9-28 100-34 157h-49v-107c1-27-5-49-29-50C55-147 81-57 75 0H25l-1-190h47c2 12-1 28 3 38 10-53 101-56 108 0 13-22 24-43 59-42 82 1 51 116 57 194h-49v-107c-1-25-5-48-29-50" id="bk"/><g id="B"><use transform="matrix(0.05,0,0,0.05,0,0)" xlink:href="#bf"/><use transform="matrix(0.05,0,0,0.05,12.950000000000001,0)" xlink:href="#bg"/><use transform="matrix(0.05,0,0,0.05,17.950000000000003,0)" xlink:href="#bh"/><use transform="matrix(0.05,0,0,0.05,27.950000000000003,0)" xlink:href="#bi"/><use transform="matrix(0.05,0,0,0.05,38.900000000000006,0)" xlink:href="#bj"/><use transform="matrix(0.05,0,0,0.05,45.900000000000006,0)" xlink:href="#bh"/><use transform="matrix(0.05,0,0,0.05,55.900000000000006,0)" xlink:href="#bk"/></g><path d="M195 0l-88-114-31 24V0H24v-248h52v113l112-113h60L142-143 257 0h-62" id="bl"/><path d="M185-48c-13 30-37 53-82 52C43 2 14-33 14-96s30-98 90-98c62 0 83 45 84 108H66c0 31 8 55 39 56 18 0 30-7 34-22zm-45-69c5-46-57-63-70-21-2 6-4 13-4 21h74" id="bm"/><path d="M123 10C108 53 80 86 19 72V37c35 8 53-11 59-39L3-190h52l48 148c12-52 28-100 44-148h51" id="bn"/><g id="C"><use transform="matrix(0.05,0,0,0.05,0,0)" xlink:href="#bl"/><use transform="matrix(0.05,0,0,0.05,12.950000000000001,0)" xlink:href="#bm"/><use transform="matrix(0.05,0,0,0.05,22.950000000000003,0)" xlink:href="#bn"/></g><g id="D"><use transform="matrix(0.03888888888888889,0,0,0.03888888888888889,0,0)" xlink:href="#av"/><use transform="matrix(0.03888888888888889,0,0,0.03888888888888889,9.333333333333334,0)" xlink:href="#aU"/><use transform="matrix(0.03888888888888889,0,0,0.03888888888888889,17.11111111111111,0)" xlink:href="#aM"/><use transform="matrix(0.03888888888888889,0,0,0.03888888888888889,21.73888888888889,0)" xlink:href="#aL"/><use transform="matrix(0.03888888888888889,0,0,0.03888888888888889,29.516666666666666,0)" xlink:href="#aJ"/><use transform="matrix(0.03888888888888889,0,0,0.03888888888888889,37.294444444444444,0)" xlink:href="#aQ"/></g><g id="E"><use transform="matrix(0.03888888888888889,0,0,0.03888888888888889,0,0)" xlink:href="#aL"/><use transform="matrix(0.03888888888888889,0,0,0.03888888888888889,7.777777777777778,0)" xlink:href="#aJ"/><use transform="matrix(0.03888888888888889,0,0,0.03888888888888889,15.555555555555555,0)" xlink:href="#aQ"/><use transform="matrix(0.03888888888888889,0,0,0.03888888888888889,19.444444444444443,0)" xlink:href="#aV"/><use transform="matrix(0.03888888888888889,0,0,0.03888888888888889,22.516666666666666,0)" xlink:href="#aQ"/><use transform="matrix(0.03888888888888889,0,0,0.03888888888888889,26.405555555555555,0)" xlink:href="#aS"/></g><path d="M266 0h-40l-56-210L115 0H75L2-248h35L96-30l15-64 43-154h32l59 218 59-218h35" id="bo"/><path d="M143 0L79-87 56-68V0H24v-261h32v163l83-92h37l-77 82L181 0h-38" id="bp"/><g id="F"><use transform="matrix(0.03888888888888889,0,0,0.03888888888888889,0,0)" xlink:href="#bo"/><use transform="matrix(0.03888888888888889,0,0,0.03888888888888889,12.911111111111111,0)" xlink:href="#aL"/><use transform="matrix(0.03888888888888889,0,0,0.03888888888888889,20.68888888888889,0)" xlink:href="#aU"/><use transform="matrix(0.03888888888888889,0,0,0.03888888888888889,28.46666666666667,0)" xlink:href="#bp"/></g><path fill="#333" d="M187 0l-14-72H61L19 0h-37l149-248h38L221 0h-34zm-19-99l-22-123L76-99h92" id="bq"/><path fill="#333" d="M133-28C103 26-5 8 13-77c13-62 24-115 90-117 29-1 46 15 56 35l19-102h32L160 0h-30zM45-64c-2 27 10 43 35 43 54-1 69-50 69-103 0-29-15-46-42-46-53-1-58 58-62 106" id="br"/><path fill="#333" d="M-28 44V31h207v13H-28" id="bs"/><g id="G"><use transform="matrix(0.05,0,0,0.05,0,0)" xlink:href="#bq"/><use transform="matrix(0.05,0,0,0.05,12,0)" xlink:href="#bb"/><use transform="matrix(0.05,0,0,0.05,22,0)" xlink:href="#br"/><use transform="matrix(0.05,0,0,0.05,32,0)" xlink:href="#aA"/><use transform="matrix(0.05,0,0,0.05,35.95,0)" xlink:href="#az"/><use transform="matrix(0.05,0,0,0.05,40.95,0)" xlink:href="#bs"/><use transform="matrix(0.05,0,0,0.05,50.95,0)" xlink:href="#ar"/><use transform="matrix(0.05,0,0,0.05,60.550000000000004,0)" xlink:href="#ao"/><use transform="matrix(0.05,0,0,0.05,66.5,0)" xlink:href="#al"/><use transform="matrix(0.05,0,0,0.05,76.5,0)" xlink:href="#aA"/><use transform="matrix(0.05,0,0,0.05,80.45,0)" xlink:href="#ak"/></g><path fill="#333" d="M11 0l48-248h184l-5 28H87l-15 79h140l-5 27H67L50-27h158l-5 27H11" id="bt"/><path fill="#333" d="M103-194c29 0 47 14 56 36 2-11 5-23 8-32h30L160-5C157 61 82 97 21 62 9 55 4 45 1 30l28-7c7 42 83 31 92-3 4-16 9-38 13-55-13 20-29 36-62 36-40 0-60-25-60-64 0-71 23-131 91-131zm4 24c-53 0-58 54-61 104-2 27 10 44 36 44 49 0 65-50 67-102 1-29-15-46-42-46" id="bu"/><g id="H"><use transform="matrix(0.05,0,0,0.05,0,0)" xlink:href="#bt"/><use transform="matrix(0.05,0,0,0.05,12,0)" xlink:href="#au"/><use transform="matrix(0.05,0,0,0.05,22,0)" xlink:href="#br"/><use transform="matrix(0.05,0,0,0.05,32,0)" xlink:href="#aA"/><use transform="matrix(0.05,0,0,0.05,35.95,0)" xlink:href="#au"/><use transform="matrix(0.05,0,0,0.05,45.95,0)" xlink:href="#bu"/><use transform="matrix(0.05,0,0,0.05,55.95,0)" xlink:href="#bs"/><use transform="matrix(0.05,0,0,0.05,65.95,0)" xlink:href="#ax"/><use transform="matrix(0.05,0,0,0.05,75.95,0)" xlink:href="#as"/><use transform="matrix(0.05,0,0,0.05,85.95,0)" xlink:href="#ay"/><use transform="matrix(0.05,0,0,0.05,94.95,0)" xlink:href="#al"/><use transform="matrix(0.05,0,0,0.05,104.95,0)" xlink:href="#az"/><use transform="matrix(0.05,0,0,0.05,109.95,0)" xlink:href="#aA"/><use transform="matrix(0.05,0,0,0.05,113.9,0)" xlink:href="#as"/><use transform="matrix(0.05,0,0,0.05,123.9,0)" xlink:href="#au"/></g><path fill="#333" d="M249-183c0 48-29 72-75 77L221 0h-36l-43-103H65L45 0H11l48-248c83 2 190-17 190 65zm-34 3c0-55-74-39-127-41l-18 92c63-1 145 13 145-51" id="bv"/><g id="I"><use transform="matrix(0.05,0,0,0.05,0,0)" xlink:href="#bv"/><use transform="matrix(0.05,0,0,0.05,12.950000000000001,0)" xlink:href="#as"/><use transform="matrix(0.05,0,0,0.05,22.950000000000003,0)" xlink:href="#bb"/><use transform="matrix(0.05,0,0,0.05,32.95,0)" xlink:href="#au"/><use transform="matrix(0.05,0,0,0.05,42.95,0)" xlink:href="#br"/></g><path fill="#333" d="M14 0l8-38h34L48 0H14" id="bw"/><g id="J"><use transform="matrix(0.05,0,0,0.05,0,0)" xlink:href="#ap"/><use transform="matrix(0.05,0,0,0.05,12.950000000000001,0)" xlink:href="#as"/><use transform="matrix(0.05,0,0,0.05,22.950000000000003,0)" xlink:href="#bw"/></g><path fill="#333" d="M114-157C55-157 80-60 75 0H25v-261h50l-1 109c12-26 28-41 61-42 86-1 58 113 63 194h-50c-7-57 23-157-34-157" id="bx"/><path fill="#333" d="M133-34C117-15 103 5 69 4 32 3 11-16 11-54c-1-60 55-63 116-61 1-26-3-47-28-47-18 1-26 9-28 27l-52-2c7-38 36-58 82-57s74 22 75 68l1 82c-1 14 12 18 25 15v27c-30 8-71 5-69-32zm-48 3c29 0 43-24 42-57-32 0-66-3-65 30 0 17 8 27 23 27" id="by"/><path fill="#333" d="M137-138c1-29-70-34-71-4 15 46 118 7 119 86 1 83-164 76-172 9l43-7c4 19 20 25 44 25 33 8 57-30 24-41C81-84 22-81 20-136c-2-80 154-74 161-7" id="bz"/><g id="K"><use transform="matrix(0.06790123456790123,0,0,0.06790123456790123,0,0)" xlink:href="#bx"/><use transform="matrix(0.06790123456790123,0,0,0.06790123456790123,14.87037037037037,0)" xlink:href="#by"/><use transform="matrix(0.06790123456790123,0,0,0.06790123456790123,28.450617283950617,0)" xlink:href="#bz"/></g><g id="L"><use transform="matrix(0.05,0,0,0.05,0,0)" xlink:href="#aE"/><use transform="matrix(0.05,0,0,0.05,12,0)" xlink:href="#as"/><use transform="matrix(0.05,0,0,0.05,22,0)" xlink:href="#au"/><use transform="matrix(0.05,0,0,0.05,32,0)" xlink:href="#bb"/><use transform="matrix(0.05,0,0,0.05,42,0)" xlink:href="#aZ"/></g><g id="M"><use transform="matrix(0.05,0,0,0.05,0,0)" xlink:href="#aC"/><use transform="matrix(0.05,0,0,0.05,12.950000000000001,0)" xlink:href="#an"/><use transform="matrix(0.05,0,0,0.05,22.950000000000003,0)" xlink:href="#aZ"/><use transform="matrix(0.05,0,0,0.05,31.950000000000003,0)" xlink:href="#ay"/><use transform="matrix(0.05,0,0,0.05,40.95,0)" xlink:href="#ao"/><use transform="matrix(0.05,0,0,0.05,46.900000000000006,0)" xlink:href="#aA"/><use transform="matrix(0.05,0,0,0.05,50.85000000000001,0)" xlink:href="#aY"/><use transform="matrix(0.05,0,0,0.05,60.85,0)" xlink:href="#az"/><use transform="matrix(0.05,0,0,0.05,65.85000000000001,0)" xlink:href="#aA"/><use transform="matrix(0.05,0,0,0.05,69.80000000000001,0)" xlink:href="#as"/><use transform="matrix(0.05,0,0,0.05,79.80000000000001,0)" xlink:href="#au"/></g><path fill="#333" d="M231 0h-52l-39-155L100 0H48L-1-190h46L77-45c9-52 24-97 36-145h53l37 145 32-145h46" id="bA"/><g id="N"><use transform="matrix(0.06790123456790123,0,0,0.06790123456790123,0,0)" xlink:href="#ah"/><use transform="matrix(0.06790123456790123,0,0,0.06790123456790123,14.87037037037037,0)" xlink:href="#bA"/><use transform="matrix(0.06790123456790123,0,0,0.06790123456790123,33.882716049382715,0)" xlink:href="#ai"/><use transform="matrix(0.06790123456790123,0,0,0.06790123456790123,48.75308641975309,0)" xlink:href="#bz"/></g><path fill="#333" d="M25-224v-37h50v37H25zM25 0v-190h50V0H25" id="bB"/><g id="O"><use transform="matrix(0.06790123456790123,0,0,0.06790123456790123,0,0)" xlink:href="#bB"/><use transform="matrix(0.06790123456790123,0,0,0.06790123456790123,6.790123456790123,0)" xlink:href="#bz"/></g></defs></g></svg>